<?xml version="1.0" encoding="utf-8"?>
<!-- Generator: Adobe Illustrator 23.0.5, SVG Export Plug-In . SVG Version: 6.00 Build 0)  -->
<svg version="1.1" id="Layer_1" xmlns="http://www.w3.org/2000/svg" xmlns:xlink="http://www.w3.org/1999/xlink" x="0px" y="0px"
	 viewBox="0 0 1000 1000" style="enable-background:new 0 0 1000 1000;" xml:space="preserve">
<style type="text/css">
	.st0{fill:#FFFFFF;}
	.st1{fill:#7BBF23;}
	.st2{fill:#0B1056;}
</style>
<rect class="st0" width="1000" height="1000"/>
<g>
	<polygon class="st1" points="441.22,337.91 441.22,361.89 418.4,361.89 418.4,384.68 394.43,384.68 394.43,361.89 371.64,361.89 
		371.64,337.91 394.43,337.91 394.43,315.1 418.4,315.1 418.4,337.91 	"/>
	<path class="st2" d="M678.57,332.51c-14.69-44.57-56.25-73.37-105.88-73.37c-22.55,0-45.66,8.37-72.65,26.33
		c-27.02-17.96-50.14-26.33-72.67-26.33c-49.6,0-91.18,28.8-105.92,73.38c-6.14,18.68-10.1,49.34,4.83,90.2h19.64
		c-15.76-38.74-12.51-67.23-6.86-84.41c12.18-36.84,46.85-60.63,88.31-60.63c18.93,0,39.02,7.55,63.21,23.77l9.47,6.35l9.47-6.35
		c24.17-16.21,44.25-23.76,63.18-23.76c41.48,0,76.13,23.8,88.27,60.63c3.82,11.61,7.19,30.75,1.86,56.37
		c-11.94-0.11-23.45-0.16-34.22-0.16c-72.14,0-76.01,2.52-77.47,3.47c-3.53,2.3-3.83,6.16-4.82,20.46
		c-0.61-7.04-1.18-13.97-1.69-20.1c-1.69-20.44-3.44-41.57-5.35-57.64c-1.04-8.8-2.04-15.37-3.07-20.08
		c-1.02-4.61-3.13-14.21-11.79-14.21c-1.74,0-7.55,0.61-9.12,8.47c-0.22,1.17-0.45,2.68-0.69,4.64c-0.41,3.39-0.9,8.34-1.47,15.11
		c-1.02,11.88-2.23,28.28-3.51,45.64l-0.35,4.69c-2.42,32.96-5.16,70.32-8.15,101.68c-0.67,7.06-1.33,13.6-1.99,19.57
		c-2.23-20.85-4.35-46.03-5.97-65.37c-1.55-18.54-3.03-36.05-4.39-48.87c-0.73-6.94-1.39-12.09-2.03-15.75
		c-0.78-4.52-2.22-12.92-10.43-12.92c-10.12,0-12.83,11.5-14.92,24.33c-1.64,10.04-2.82,22.45-3.87,33.41l-0.03,0.26
		c-0.5,5.31-1.07,11.26-1.58,15.23c-5.51,0.71-8.83,0.88-28.99,0.91l-61.04,0l0,0h-33.63l1.03,2.2c0.77,1.66,1.58,3.33,2.42,5.02
		h-0.02l1.15,2.25c25.26,49.44,72.71,100.09,141.01,150.56l22.19,16.42l22.14-16.42c77.6-57.33,127.98-114.56,149.83-170.13h-19.84
		c-21.85,50.01-69.26,102.21-141.01,155.22l-11.13,8.26l-11.15-8.26c-58.4-43.14-100.94-86.06-126.49-127.59l64.54-0.01
		c29.83-0.09,37.94-0.68,42.5-4.9c2.93-2.7,3.47-5.62,5.04-21.8c0.36,4.25,1.18,14.05,1.18,14.05c2.07,24.59,4.41,52.45,6.9,73.77
		c1.37,11.7,2.66,20.39,3.95,26.56c1.41,6.77,3.54,17,12.68,17c9.81,0,11.8-11.94,13.73-23.5c1.61-9.65,3.26-23.17,5.07-41.34
		c3.11-31.41,6.02-70.63,8.42-103.37c0.21,2.5,0.69,8.34,0.69,8.34c1.51,18.32,3.08,37.26,4.7,51.49
		c0.89,7.71,1.72,13.39,2.55,17.38c0.81,3.97,2.73,13.27,11.15,13.27c10.38,0,13.07-12.15,14.76-23.54
		c1.44-9.67,2.29-21.34,3.04-31.64c0.36-4.97,0.74-10.07,1.11-13.69c6.12-0.1,26.22-0.18,47.88-0.25v-0.16h64.86l0.33-1.11
		c0.76-2.57,1.47-5.26,2.22-8.41h0.05l0.28-1.2c0.4-1.69,0.74-3.36,1.07-4.99l0.05-0.22C686.93,367.71,682.94,345.79,678.57,332.51z
		"/>
</g>
</svg>
